<svg width="32" height="33" viewBox="0 0 32 33" fill="none" xmlns="http://www.w3.org/2000/svg">
<path d="M25.868 21.9919C25.95 21.6719 26 21.3379 26 20.9919V11.9919C26 9.78594 24.206 7.99194 22 7.99194H10C7.794 7.99194 6 9.78594 6 11.9919V20.9919C6 21.3379 6.048 21.6719 6.132 21.9919H25.868ZM9.2 11.9919C9.2 11.5499 9.558 11.1919 10 11.1919H22C22.442 11.1919 22.8 11.5499 22.8 11.9919V20.9919C22.8 21.4339 22.442 21.7919 22 21.7919H10C9.558 21.7919 9.2 21.4339 9.2 20.9919V11.9919Z" fill="#886CFF"/>
<path d="M26.7999 21.3921H4.9999C4.11625 21.3921 3.3999 22.1084 3.3999 22.9921C3.3999 23.8757 4.11625 24.5921 4.9999 24.5921H26.7999C27.6836 24.5921 28.3999 23.8757 28.3999 22.9921C28.3999 22.1084 27.6836 21.3921 26.7999 21.3921Z" fill="#FFC0EC"/>
</svg>
