<svg width="32" height="33" viewBox="0 0 32 33" fill="none" xmlns="http://www.w3.org/2000/svg">
<path d="M14.442 8.78589H11.642C10.7583 8.78589 10.042 9.50223 10.042 10.3859V21.2059C10.042 22.0895 10.7583 22.8059 11.642 22.8059H14.442C15.3256 22.8059 16.042 22.0895 16.042 21.2059V10.3859C16.042 9.50223 15.3256 8.78589 14.442 8.78589Z" fill="#FFC0EC"/>
<path d="M22.1981 13.656H19.3981C18.5144 13.656 17.7981 14.3724 17.7981 15.256V21.206C17.7981 22.0897 18.5144 22.806 19.3981 22.806H22.1981C23.0818 22.806 23.7981 22.0897 23.7981 21.206V15.256C23.7981 14.3724 23.0818 13.656 22.1981 13.656Z" fill="#FFC0EC"/>
<path d="M25.706 24.6819H8.08795V7.09194C8.08795 6.20794 7.37195 5.49194 6.48795 5.49194H6.29995C5.41595 5.49194 4.69995 6.20794 4.69995 7.09194V26.4919C4.69995 27.3759 5.41595 28.0919 6.29995 28.0919H6.48795C6.57395 28.0919 6.65795 28.0839 6.74195 28.0699H25.706C26.59 28.0699 27.306 27.3539 27.306 26.4699V26.2819C27.306 25.3979 26.59 24.6819 25.706 24.6819Z" fill="#886CFF"/>
</svg>
